<svg
	version="1.1"
	xmlns="http://www.w3.org/2000/svg"
	x="0px"
	y="0px"
	viewBox="0 0 196 50">
	<style type="text/css">
		.st0{fill:#FFFFFF;}
		.st1{fill:none;}
		.st2{fill:none;stroke:#FFFFFF;stroke-width:0;stroke-linecap:round;stroke-linejoin:round;}
	</style>
	<g>
		<path d="M121.1,15.5c-0.1-0.5-0.3-1-0.1-1.5c0-0.1,0-0.1-0.1-0.2c-0.1-0.3-0.3-0.6-0.1-0.9c0,0,0-0.1-0.1-0.1
			c-0.1-0.1-0.1-0.3-0.1-0.5c0.1-0.1,0-0.2-0.1-0.3c-0.3-0.5-0.4-1-0.4-1.7c0-0.2,0-0.5-0.1-0.7c-0.2-0.4-0.3-0.9-0.5-1.2
			c-0.1-0.1-0.1-0.3,0-0.4c0.1-0.4-0.1-0.8-0.3-1.1c-0.4-0.5-0.8-0.9-1-1.6c-0.2-0.8-0.9-1.3-1.5-1.7c-0.2-0.1-0.5-0.2-0.6-0.6
			c-0.2-0.4-0.6-0.6-0.9-0.7c-0.1-0.1-0.3-0.1-0.4-0.2c-0.1-0.3-0.4-0.4-0.7-0.5c-0.3-0.1-0.6-0.2-0.8-0.4C113.2,1.1,113.1,1,113,1
			c-0.5,0-0.9-0.2-1.4-0.5c-0.2-0.1-0.4-0.1-0.7,0c-0.4,0.2-0.7,0.1-1.2,0c-0.2-0.1-1,0-1.2,0.1c-0.3,0.1-0.6,0.1-0.9,0.1
			c-0.4-0.1-0.6-0.1-0.9,0.1c-0.1,0-0.2,0-0.3-0.1c-0.3-0.1-0.5,0-0.7,0.2l-0.6,0.5c-0.4,0.3-0.6,0.7-0.7,1.2
			c-0.1,0.6-0.2,1.2-0.4,1.7c-0.1,0.4-0.1,0.7,0.1,1.1c0.1,0.2,0.1,0.4,0.1,0.6c-0.1,0.4-0.1,0.9,0,1.4c0,0.9-0.2,1.9-0.1,2.7v0.2
			c-0.1,0.4-0.1,0.9,0,1.2c0.1,0.2,0.1,0.4,0,0.5c0,0.5-0.1,0.9,0,1.4c0.1,0.4,0.1,0.7-0.1,1c-0.1,0.2-0.2,0.5-0.1,0.7
			c0.2,0.6,0.1,1.2,0.1,1.7c0,0.5,0.1,1,0,1.5c-0.1,0.2,0,0.4,0,0.7c0.1,0.6,0.2,1.1,0.1,1.7c-0.1,0.7-0.4,1.4,0,2v0.1
			c0,0.1,0,0.2-0.1,0.3c-0.1,0-0.1,0.1-0.2,0.1c-0.3,0.3-0.6,0.5-0.9,0.8c-1.9,1.9-3.6,4-5.4,5.9c-1.6,1.7-3.1,3.5-4.9,5
			c-0.3,0.2-0.6,0.6-1,0.4c-0.4-0.2-0.3-0.7-0.3-1c0-3.7,0.3-7.5,0.6-11.2c0.4-5.8,1-11.6,1.5-17.3c0.1-1.8-0.5-3.4-2-4.5
			c-1.2-1-2.1-0.8-2.9,0.6c-0.3,0.6-0.5,1.2-0.8,1.8c-1.7,5-2.8,10.2-3.7,15.5c-0.4,2.5-1.2,4.7-3,6.5c-0.5,0.5-0.9,1.2-1.4,1.7
			c-1.7,1.9-3.2,3.9-5.2,5.5c-0.3,0.3-0.7,0.7-1.1,0.5c-0.4-0.2-0.2-0.7-0.2-1.1c0.4-4,1.5-7.9,3-11.7c0.3-0.8,0.8-0.9,1.5-0.5
			c1,0.5,2,1.1,3,1.7c0.6,0.3,1.1,0.3,1.6-0.2c0.5-0.6,0.2-1.1-0.2-1.5c-1.5-1.7-3.4-3-5.5-3.7c-0.9-0.3-1.6-0.1-2.3,0.5
			c-1.3,1.2-2.3,2.6-3.2,4c-1.2,1.7-1.8,3.8-3.1,5.5c-2.3,3.2-4.7,6.4-6.9,9.7c-1.1,1.6-2.2,3.3-3.5,5.1c0.1-1.7,0.3-3.1,0.7-4.5
			c0.9-3.4,1.8-6.9,2.8-10.3c0.6-2.3,0-4.1-1.7-5.6c-1.6-1.4-2.4-1.4-4-0.1c-4,3.1-7.7,6.5-11.4,9.9c-1,0.9-2.1,1.9-3.1,2.8
			c-0.1-0.1-0.1-0.1-0.2-0.2c1.5-4.3,3.2-8.6,5.7-12.5c1.1-1.6,1.3-1.7,3.1-0.8c0.2,0.1,0.4,0.2,0.6,0.3c0.9,0.5,1.5,0.1,2.1-0.6
			c0.6-0.7,0.6-1.4,0.1-2c-1-1.3-2.3-2.1-3.9-2.6c-1.2-0.3-2.3-0.1-3.3,0.7c-1.5,1.3-2.8,2.7-4,4.3c-3.6,4.5-7,9.3-9.4,14.6
			c-0.3,0.7-0.5,0.6-0.9,0.1c-2.2-3-4.5-6.1-6.8-9c-0.5-0.7-0.4-1.1,0.2-1.6c3.2-2.8,6.3-5.8,9.2-8.9c1-1,1.9-2.1,2.8-3.3
			c0.5-0.7,0.7-1.4,0.5-2.2c-0.7-3.4-2.7-5.9-5.2-8.1C29.1,0,26.7-0.5,24,0.4C17.6,2.5,11.5,5.3,5.8,8.9C4.4,9.7,3,10.7,1.8,12
			c-1,1.1-1.1,1.9-0.4,3.2c0.5,1,1.4,1.7,2.3,2.3c0.8,0.6,1.6,0.6,2.5,0.1c3.5-2,7.1-4.1,10.7-5.9c3.1-1.5,6.2-3,9.6-3.6
			c1.4-0.3,1.8-0.1,2.4,0.8c0.6,0.9,0.3,1.7-0.3,2.4c-0.3,0.3-0.5,0.6-0.8,0.9c-2.4,2.8-5.1,5.4-7.6,8.1c-1,1-2,2-3.1,3.1
			c0.3-2.1,0.4-3.9,0.8-5.7c0.3-1.3-0.4-1.9-1.2-2.6c-1.5-1.1-2.1-0.9-2.9,0.7c-1.2,2.2-2.2,4.5-3.1,6.9c-1.6,4.3-3.1,8.6-3.9,13.1
			c-0.2,1.3,0,2.4,0.9,3.4c1.4,1.4,2.8,2.7,4.4,3.8c1.9,1.3,2.4,1.1,2.9-1.2c0.7-3.2,0.9-6.4,1.3-9.6c0.1-0.9,0.2-1.7,0.3-2.6
			c0.1-0.9,0.9-1.2,1.6-1.4c0.5-0.1,0.5,0.6,0.7,1c1,2,1.9,4,2.9,6c2,3.8,4.1,7.6,6.8,11c0.8,1,1.7,2,2.8,2.7c1.1,0.7,2.1,0.9,3.2,0
			c0.8-0.6,1.8-1.2,2.5-2c1.9-2.1,4-3.8,6.5-5.1c2.2-1.1,4.2-2.6,6.4-4.1c0.1,1.3,0.3,2.4,0.4,3.5c0.2,1.7,0.4,3.4,1.1,4.9
			c1,2.4,3.5,2.9,5.4,1.2c0.5-0.5,1.1-1.1,1.5-1.6C61,43.2,63,40.1,65,37c0.2-0.3,0.3-0.5,0.6-1c0,2.6,1.3,4.3,2.7,5.9
			c2.4,2.6,3.8,2.8,6.7,0.9c2.4-1.6,4.7-3.4,6.9-5.3c0.8-0.7,0.8-0.7,1.1,0.4c0.7,2.3,1.4,4.5,2.9,6.3c1.5,1.9,3.2,2.2,5.2,0.7
			c1.2-0.9,2.3-1.9,3.3-2.9c3.6-3.9,6.8-8.1,9.6-12.5c0,0.1,0,0.2,0,0.4c0.1,0.1,0.1,0.3,0.1,0.4c-0.1,0.2-0.1,0.5-0.1,0.7
			c0,0.2,0.1,0.4,0,0.6c-0.1,0.5,0.1,0.9,0.1,1.4c0,0.2,0.1,0.4,0.1,0.7c0,0.8-0.2,1.6-0.1,2.4c0,0.1-0.1,0.2-0.1,0.3
			c-0.1,0.2-0.2,0.6-0.1,0.9c0.2,0.4,0.1,0.9,0,1.3c-0.1,0.5-0.2,1,0,1.5v0.3c-0.1,0.2-0.1,0.4-0.1,0.7c0.1,0.4,0,0.9,0,1.4
			c0,0.3,0,0.6-0.1,0.9c-0.1,0.1-0.1,0.2,0,0.3c0.2,0.3,0.2,0.7,0.2,1.1c0.1,0.1,0.1,0.2,0.2,0.3c0.1,0.1,0.3,0.1,0.6,0.2
			c0.7,0.1,1.5-0.2,2.3-0.1c0.1,0,0.2-0.1,0.2-0.1c0.1-0.1,0.2-0.1,0.3-0.1c0.4,0,0.7-0.2,0.7-0.7v-0.9c0-0.1,0-0.2,0.1-0.2
			c0.2-0.6,0.2-1,0.1-1.6c0-0.3-0.1-0.7-0.1-1c0.1-0.4,0.2-0.9,0.1-1.3c-0.1-0.2-0.1-0.6,0.1-0.9c0.1-0.6,0.2-1.1,0.1-1.7
			c0-0.1,0-0.2,0.1-0.3l0.4-0.8c0.2-0.4,0.4-0.6,0.8-0.7c0.2-0.1,0.4-0.1,0.6-0.1c0.3,0,0.6-0.2,0.7-0.5c0.1-0.1,0.1-0.2,0.2-0.2
			c0.4,0,0.7-0.2,1.1-0.3c0.1,0,0.2-0.1,0.4-0.1c0.4,0,0.7-0.2,1-0.4c0.4-0.2,0.7-0.6,1.1-0.8c0.7-0.5,1.3-1.2,1.8-1.8
			c0.1-0.1,0.1-0.1,0.1-0.2c0.1-0.2,0.2-0.4,0.4-0.5c0.3-0.2,0.5-0.4,0.5-0.8c0-0.1,0.1-0.2,0.2-0.4l0.5-1c0.1-0.4,0.2-0.7,0.5-1
			c0.2-0.2,0.2-0.4,0.2-0.6s0.1-0.4,0.1-0.6c0.2-0.4,0.6-0.8,0.5-1.4c0-0.1,0.1-0.1,0.1-0.1c0.1-0.6,0.3-1,0.3-1.7
			c0.1-0.4,0.1-0.8,0.3-1.1c0.3-0.4,0.3-0.9,0.2-1.4c-0.1-0.3-0.1-0.6,0.1-0.9c0.2-0.6,0.2-1.2,0.2-1.9v-0.7
			C121.2,16.1,121.2,15.8,121.1,15.5z M115.8,18.6c0,0.1-0.1,0.2-0.1,0.2c0.1,0.7-0.3,1.4-0.2,2.1c-0.3,0.4-0.2,0.9-0.6,1.3
			c-0.2,0.4-0.2,0.8-0.4,1.2v0.2c-0.6,0.7-0.9,1.5-1.4,2.3c-0.4,0.5-0.8,0.9-1.4,1c-0.1,0.1-0.2,0.1-0.3,0.2
			c-0.2,0.4-0.7,0.5-1.1,0.7c-0.5,0.1-1.2-0.2-1.3-0.7c-0.1-0.3-0.2-0.6-0.2-1c0-0.2-0.1-0.4-0.1-0.6c-0.1-0.6-0.1-1.2-0.1-1.7v-1.6
			c0-0.2,0-0.4-0.1-0.7c0-0.2,0-0.4,0.1-0.6c0.1-0.4,0-0.7,0-1.1c-0.1-0.5-0.1-1-0.1-1.5c0-0.1,0-0.2,0.1-0.3
			c0.1-0.2,0.1-0.4,0.1-0.6c-0.1-0.7,0-1.5,0-2.3c0-0.3,0.1-0.6,0-0.9c0-0.1,0-0.2,0.1-0.4c0.2-0.3,0.1-0.6,0-0.9
			c-0.1-0.4-0.1-0.7-0.2-1.1c-0.1-0.1,0.1-0.2,0.1-0.4c0.2-0.4,0.2-0.8,0.1-1.2c-0.1-0.4-0.1-0.9-0.1-1.3c0-0.3-0.1-0.6,0-0.9
			c0.1-0.4,0.1-0.9,0.6-1.2c0.1-0.1-0.2-0.1-0.1-0.2c0.1,0,0.5-0.4,0.5-0.4c0.4,0.2,0.8-0.1,1.2,0.1c0.2,0.1,0.6,0.1,0.9-0.1
			c0.2-0.1,0.4,0.2,0.5,0.3c0.3,0.2,0.7,0.4,0.9,0.7l0.2,0.3c0.3,0.2,0.4,0.6,0.6,0.9c0.1,0.2,0.1,0.5,0.2,0.6
			c0.4,0.3,0.2,0.6,0.4,0.8c0.4,0.4,0.5,0.9,0.5,1.5c0.1,0.3,0.1,0.6,0.2,0.9c0.1,0.4,0.2,0.7,0.2,1.1c0.1,0.4,0.2,0.9,0.1,1.3
			c0,0.3-0.1,0.6,0.1,0.9c0.1,0.2,0.1,0.5,0,0.8c-0.1,0.4-0.1,0.7,0,1C116.1,17.7,116,18.1,115.8,18.6z"/>
		<path d="M137.3,42.3c-0.1-0.3-0.1-0.7-0.1-1c-0.1-0.4-0.2-0.7-0.4-1c-0.1-0.2-0.2-0.3-0.5-0.4c-0.2,0-0.4,0-0.6-0.1
			c-0.3-0.1-0.6-0.2-0.9-0.1c-0.1,0.1-0.2,0.1-0.3,0c-0.2-0.1-0.4-0.1-0.6,0c-0.2,0.1-0.6,0.2-0.9,0.1c-0.4-0.1-0.6-0.1-1-0.1
			c-0.6,0.1-1.2-0.1-1.6-0.6c-0.4-0.7-0.4-1.5-0.4-2.2v-0.7c0-0.2,0.1-0.4,0.1-0.6c0.1-0.4,0.1-0.9,0-1.2c-0.1-0.4-0.2-0.7-0.2-1.1
			l0.1-1.2c0.1-0.8,0.1-1.5-0.2-2.3c-0.1-0.2-0.1-0.4,0.1-0.6c0.1-0.3,0.2-0.6,0.1-0.9l-0.1-1c0-0.1,0.1-0.2,0.1-0.2
			c0.2-0.3,0.2-0.6,0.1-0.9c-0.1-0.2-0.1-0.5-0.1-0.7c-0.1-0.6,0.1-1.2,0.1-1.8c0.1-0.3,0.1-0.6,0-0.9c-0.1-0.3-0.2-0.6-0.1-0.9
			c0.1-0.4,0-0.7,0.1-1.1c0.1-0.1,0.1-0.3,0-0.5c-0.2-0.4-0.1-0.9,0.1-1.2c0.1-0.2,0.1-0.5,0-0.7c-0.1-0.2-0.1-0.4-0.1-0.6
			c0.1-0.1,0-0.3,0-0.4c-0.1-0.2-0.1-0.4-0.1-0.6c0.1-0.6,0.1-1.3,0-2c0-0.3,0-0.7,0.1-1c0.1-0.6,0.1-1.1,0-1.7
			c-0.1-0.8-0.1-1.6,0-2.4c0.1-0.4,0.2-0.7,0.1-1C130,8.4,130,8.2,130,8c0.1-0.1,0.1-0.2,0.1-0.4c0-0.6,0.1-1.1,0-1.7v-2
			c0-0.2,0.1-0.5,0.1-0.7l-0.3-1.4c-0.1-0.3-0.2-0.4-0.4-0.5c-0.3-0.1-0.6-0.2-0.8-0.3c-0.1,0-0.2-0.1-0.3-0.1
			c-0.6,0.2-1.2,0.1-1.8,0.1c-0.4-0.1-0.9,0.2-1.3,0.4c-0.2,0-0.2,0.2-0.2,0.4c-0.1,0.1-0.1,0.3,0,0.4c0.1,0.9,0.1,1.7,0.1,2.6
			c0,0.2-0.1,0.4-0.1,0.6c0.2,0.4,0.2,0.9,0.1,1.3c0,0.2,0.1,0.4,0.1,0.6c0.1,0.5,0.1,0.9-0.1,1.4c-0.1,0.2-0.1,0.5,0,0.7
			c0.1,0.2,0.1,0.4,0.1,0.6c-0.1,0.1-0.1,0.4-0.1,0.5c0.1,0.4,0.1,0.9-0.1,1.3c-0.1,0.3-0.1,0.6-0.1,0.9c0.1,0.6,0.1,1,0.2,1.7
			c0,0.2,0.1,0.4,0.1,0.6c-0.1,0.7,0.1,1.4-0.2,2c0,0.1,0.1,0.2,0.1,0.4c0.1,0.6,0.1,1.1-0.1,1.7c-0.1,0.1-0.1,0.3-0.1,0.5
			c0.1,0.4,0.2,0.7,0.1,1c-0.1,0.4,0,0.7,0.1,1c0,0.1,0.1,0.2,0,0.4c-0.2,0.3-0.1,0.7-0.1,1c0,0.4,0.1,0.7,0.1,0.9
			c-0.2,1.4-0.1,2.7-0.2,4c0,0.1,0,0.2,0.1,0.4c0.2,0.3,0.1,0.6,0.1,0.9c-0.1,0.6-0.2,1.2-0.1,1.9c0.1,0.7,0.2,1.4,0,2
			c-0.1,0.2,0,0.5,0.1,0.8c0.1,0.2,0.1,0.4,0.1,0.7c-0.1,0.3-0.1,0.6,0,0.9c0,0.2,0,0.4-0.1,0.7c-0.1,0.4-0.1,0.7,0.1,1
			c0.1,0.2,0.1,0.5,0,0.7c-0.1,0.5-0.1,0.9,0,1.4c0.1,0.3,0.1,0.6-0.1,0.9c-0.1,0.1-0.1,0.2-0.1,0.4c0.2,0.4,0.1,0.9,0.1,1.4
			c0.1,0.4,0.1,0.8,0.2,1.2c0.1,0.1,0.1,0.2,0.1,0.3c0,0.6,0.4,1,1,1.2c0.4,0.2,0.9,0.1,1.3,0.4c0.1,0,0.2,0,0.3-0.1
			c0.2-0.1,0.6-0.1,0.9-0.1c0.2,0.1,0.4,0.1,0.6,0c0.2-0.1,0.4-0.1,0.6,0.1c0.2,0.2,0.6,0.2,0.9,0.1c0.3,0,0.6-0.1,0.9-0.1h1.8
			c0.2,0.1,0.5,0.1,0.7,0.1c0.5,0,1,0,1.4,0.1c0.4,0.1,0.7-0.1,1-0.1c0.1,0,0.1-0.1,0.1-0.1c0.3-0.3,0.5-0.6,0.4-1
			c-0.1-0.2-0.1-0.5,0-0.7C137.2,42.7,137.3,42.5,137.3,42.3z"/>
		<path d="M161.6,43.4l-0.1-0.4c-0.1-0.4-0.1-0.9-0.1-1.3c0-0.6-0.4-1-0.2-1.7c0-0.1-0.1-0.1-0.1-0.2c-0.1-0.2-0.1-0.4-0.2-0.6
			l-0.2-1c-0.1-0.8-0.3-1.5-0.2-2.3c0.1-0.3-0.1-0.6-0.1-0.9c-0.2-0.6-0.4-1.1-0.4-1.7c-0.1-0.5,0-1-0.1-1.5
			c-0.2-0.8-0.5-1.7-0.6-2.5c-0.1-0.4-0.2-0.9-0.1-1.3c0-0.1,0-0.3-0.1-0.4c-0.2-0.7-0.1-1.5-0.4-2.2c-0.2-0.4-0.1-0.9-0.1-1.4
			c-0.1-0.4-0.2-0.8-0.1-1.2c0.1-0.4,0-0.7-0.1-1c-0.1-0.4-0.1-0.8-0.2-1.2c-0.1-0.4-0.1-0.7-0.1-1.2c0.1-0.2,0.1-0.4,0-0.7l-0.6-1.7
			c-0.1-0.4-0.1-0.8-0.1-1.2c0.1-0.7,0.1-1.4-0.3-2.1l-0.2-0.6c-0.1-0.5-0.1-1-0.2-1.5c-0.1-0.2-0.1-0.5-0.1-0.8c0-0.4,0-0.9-0.3-1.4
			c0-0.1,0-0.2-0.1-0.2c-0.3-1-0.4-2-0.6-3l-0.2-1.2c-0.1-0.4-0.1-0.9-0.2-1.3c-0.2-0.7-0.4-1.4-0.6-2c-0.2-0.5-0.4-0.7-0.9-0.9
			c-0.4-0.1-0.8-0.1-1.2-0.2c-0.6,0-1.1-0.1-1.7,0.1c-0.2,0.1-0.6,0-0.9,0c-0.6,0.1-1.2,0.5-1.4,1c-0.1,0.4-0.2,0.7-0.3,1.2
			c-0.1,0.6-0.2,1.1-0.4,1.7c-0.1,0.6-0.1,1.2-0.5,1.7c0,0.1-0.1,0.1-0.1,0.2c0.1,0.7-0.1,1.5-0.3,2.2c-0.1,0.2-0.1,0.4-0.1,0.7
			c0,1-0.2,2-0.5,3c-0.1,0.2-0.1,0.4-0.1,0.6c0,0.9-0.2,1.9-0.4,2.8c0,0.1-0.1,0.3-0.1,0.4c-0.3,0.2-0.2,0.4-0.2,0.7
			c0,0.2,0.1,0.6,0,0.8l-0.4,3.3c-0.1,0.6-0.1,1-0.3,1.5c-0.2,0.3-0.2,0.7-0.2,1c0,0.2,0.1,0.5,0,0.7c0,0.3-0.1,0.6-0.2,0.8
			c-0.2,0.2-0.2,0.5-0.2,0.7c0.1,0.3,0.1,0.6-0.1,0.9c-0.1,0.3-0.2,0.7-0.1,1.1c0.1,0.3,0,0.6-0.1,0.9c-0.1,0.2-0.2,0.5-0.2,0.7
			c0,1-0.3,2-0.5,3c-0.1,0.6-0.2,1.2-0.2,1.9c-0.1,0.6-0.2,1-0.3,1.6c-0.1,0.3-0.1,0.6-0.1,1c0.1,0.1,0,0.2-0.1,0.4
			c-0.2,0.4-0.4,0.9-0.2,1.4V39c-0.2,0.6-0.1,1.1-0.3,1.7V41c0.1,0.3,0.1,0.6,0,0.9c-0.2,0.6-0.4,1.2-0.4,1.8c0,0.1-0.1,0.2-0.1,0.4
			v0.4c0,0.3,0.1,0.4,0.4,0.4c0.7,0,1.3-0.1,2,0.1c0,0,0.1,0.1,0.1,0c0.4-0.2,0.7-0.1,1.2-0.1c0.6-0.1,0.8-0.4,0.9-0.9
			c0.1-0.2,0.1-0.5,0.2-0.7c0.1-0.3,0.2-0.6,0.2-1c0-0.1,0.1-0.2,0.1-0.3c0.2-0.4,0.3-0.9,0.3-1.4c0-0.2,0-0.4,0.1-0.6
			c0.1-0.2,0.2-0.4,0.2-0.7c0-0.7,0.3-1.4,0.6-2l0.2-0.3c0.3-0.2,0.7-0.4,0.9-0.7c0,0,0.1-0.1,0.1-0.1c0.4,0,0.8-0.3,1.2-0.4
			c0.7-0.1,1.5-0.1,2.3-0.1c0.6,0.1,1.2,0.1,1.8,0.5c0.3,0.2,0.5,0.7,0.9,0.9c0.1,0.1,0,0.2,0,0.4c0.1,0.1,0.1,0.2,0.1,0.2
			c0.1,0.1,0.2,0.3,0.3,0.5c0.3,0.7,0.4,1.4,0.6,2.2c0.1,0.2-0.1,0.3,0.1,0.5c0.2,0.2,0.2,0.4,0.2,0.7c-0.1,0.2-0.1,0.3,0,0.4
			c0.2,0.7,0.2,1.4,0.3,2c0.1,0.6,0.3,0.9,0.7,0.9c0.6,0.1,1.1,0.1,1.6,0.1c0.4,0,0.7-0.4,1.2-0.1c0.4-0.2,0.8-0.2,1.2-0.2
			c0.2-0.1,0.3-0.2,0.2-0.4c-0.1-0.2-0.1-0.2,0-0.4C161.6,43.7,161.6,43.5,161.6,43.4z M154.2,28.7c-0.2,0.7-0.7,1.2-1.5,1.5
			c-0.8,0.2-1.6,0.2-2.4-0.1c-0.6-0.2-1.2-0.6-1.5-1.2c-0.2-0.5-0.2-1-0.2-1.5c0.1-0.4,0.2-0.9,0.1-1.4c-0.1-0.3-0.1-0.7,0.1-1
			c0.1-0.2,0.1-0.5,0.1-0.7c0-0.3,0.1-0.7,0.2-1c0.1-0.1,0.1-0.2,0.1-0.3c-0.1-0.7,0.1-1.4,0.2-2.1c0.2-1.7,0.3-2.2,0.6-3.8
			c0.1-1,0.4-2.7,0.7-3.7c0.1-0.4,0-0.7,0.4-1c0.1-0.1,0.3-0.1,0.4-0.1c0.2-0.1,0.6,0.1,0.7,0.2c0.2,0.4,0.2,1,0.4,1.5
			c0.2,0.8,0.2,1.8,0.4,2.6c0.1,0.1,0.1,0.1,0.1,0.2c-0.1,0.7,0.1,1.4,0.2,2c0,0.5,0.2,1,0.2,1.5c0.1,0.1,0.1,0.2,0.1,0.3
			c-0.1,0.8,0.4,1.6,0.4,2.5c0.1,0.6,0.2,1.2,0.4,1.9l0.1,1.5c0,0.3,0.1,0.6,0.1,0.7C154.3,27.9,154.3,28.3,154.2,28.7z"/>
		<path d="M171.5,37.7c0.1-0.4,0.1-0.9,0-1.2c-0.2-0.9-0.1-1.9,0.1-2.8c0.1-0.8,0.1-1.6,0.1-2.4c0-0.1,0-0.2-0.1-0.3
			c-0.1-0.1-0.1-0.2-0.1-0.3c0-0.7-0.1-1.4,0-2c0-0.1,0-0.2,0.1-0.3c0.1-0.2,0.1-0.5,0.1-0.8c-0.1-0.3-0.1-0.6,0-0.9
			c0.1-0.4-0.1-0.9-0.1-1.3c-0.1-1-0.1-2,0-2.9c0.1-0.6,0.1-1.1,0.1-1.6c-0.1-0.7,0.1-1.4-0.1-2c-0.1-0.1,0-0.1,0-0.2
			c0.2-0.2,0.1-0.4,0.1-0.7c0-0.3-0.1-0.6-0.1-0.8c0.1-0.5,0.1-1,0-1.4c0-0.3,0-0.6,0.1-0.8c0.1-0.3,0.1-0.6,0.1-0.8
			c-0.1-0.4-0.2-0.9-0.2-1.3c0.1-0.4,0-0.8,0.2-1.2c0.1-0.2,0.1-0.4,0-0.6c-0.2-0.2-0.1-0.5-0.2-0.7c-0.1-0.5,0.1-1-0.1-1.6
			c-0.1-0.1,0-0.2,0-0.2c0.1-0.7,0.1-1.4,0.1-2c-0.1-0.7-0.1-1.4,0-2c0.1-0.3,0.1-0.6,0-0.9c0-0.3-0.1-0.7,0-1
			c0.1-0.2-0.1-0.4-0.1-0.5l-0.3-0.4c-0.2-0.3-0.4-0.4-0.7-0.3h-0.7c-0.7,0.1-1.4,0.1-2,0.1c-0.6,0-0.8,0.2-0.9,0.8
			c0,0.1-0.1,0.1-0.1,0.2c-0.1,0.4-0.2,0.9-0.1,1.4c0.1,0.5,0.1,1-0.1,1.5c-0.1,0.3-0.1,0.6-0.1,0.9c0.1,0.5,0.1,1,0.2,1.6
			c0,0.1-0.1,0.1-0.1,0.2c-0.2,0.5-0.2,1-0.1,1.6c0.1,0.7,0.1,1.3,0,2c0,0.2-0.1,0.4,0,0.6c0.1,0.5,0.1,0.9,0.1,1.4
			c0,0.2,0.1,0.4,0,0.7c-0.1,0.4-0.1,0.9-0.2,1.4c-0.1,0.1,0,0.3,0.1,0.4c0.1,0.3,0.1,0.6,0.1,0.9c0,0.6-0.1,1.1,0,1.7
			c0,0.3-0.1,0.6,0,0.9v0.4c-0.2,0.5-0.1,0.9,0,1.4c0.1,0.2,0.1,0.4,0.1,0.7c-0.1,0.6-0.1,1.2-0.2,1.9c-0.1,0.1-0.1,0.1,0,0.2
			c0.2,0.7,0.2,1.5,0.2,2.2c0,0.3,0.1,0.6-0.1,0.9s-0.1,0.7,0,1c0.2,0.5,0.1,1,0.1,1.5c0.1,0.4-0.2,0.9-0.1,1.3
			c0.1,0.6,0.1,1.2,0.1,1.9c0.1,0.5,0.1,1-0.1,1.5c-0.1,0.2,0,0.4,0,0.6c0.1,0.1,0.1,0.2,0,0.4c-0.1,0.5-0.1,1,0.1,1.4
			c0.1,0.1,0.1,0.3,0.1,0.4v0.7c0,0.3,0.1,0.7-0.1,0.9c-0.2,0.4-0.1,0.7,0,1c0,0.1,0.1,0.2,0.1,0.4c-0.1,0.8,0.1,1.6-0.1,2.3
			c-0.1,0.2-0.1,0.4,0,0.6c0.2,0.3,0.2,0.7,0.2,1c0,0.2,0.1,0.4,0.3,0.4c0.2,0.1,0.6,0.2,0.8,0.2c0.5,0.1,1,0,1.5,0h1.4
			c0.4-0.1,0.8-0.4,0.7-0.9v-1c0-0.4-0.1-0.8,0.1-1.2c0.1-0.2,0.2-0.6,0.2-0.8c-0.1-0.6-0.2-1.2-0.3-1.9
			C171.4,38.5,171.4,38.1,171.5,37.7z"/>
		<path d="M194.9,23.8c0.1-0.5,0.1-0.9-0.1-1.4l-0.1-0.4c-0.1-0.7,0-1.4,0-2c0-0.4,0-0.8-0.1-1.2c0-0.1-0.1-0.1,0-0.2
			c0.2-0.3,0.1-0.6,0.1-0.9c-0.1-0.8-0.1-1.6,0-2.4c0-0.2,0-0.5-0.1-0.7c-0.2-0.6-0.2-1-0.1-1.6c0.1-0.2,0.1-0.4,0-0.6
			c-0.1-0.1-0.1-0.2-0.1-0.3c0.1-0.7-0.3-1.4-0.3-2.2c0-0.3-0.1-0.6,0.1-1c0-0.1,0.1-0.3-0.1-0.4c-0.4-0.3-0.3-0.8-0.4-1.2
			c-0.1-0.3-0.1-0.6-0.2-0.8c-0.2-0.2-0.2-0.4-0.2-0.6c0.1-0.2,0-0.4-0.1-0.6c-0.3-0.4-0.4-1-0.9-1.4l-0.1-0.1
			c-0.1-0.2-0.2-0.3-0.4-0.4c-0.1,0-0.2-0.1-0.2-0.2c-0.2-0.5-0.6-0.7-1-0.9c-0.1,0-0.1,0-0.1-0.1c-0.3-0.2-0.6-0.4-1-0.6
			c-0.5-0.2-1-0.6-1.5-0.7C187.6,1,187.3,1,187,0.9c-0.5-0.2-1.1-0.1-1.6-0.4c-0.1-0.1-0.3-0.1-0.4,0c-0.7,0.2-1.5,0.1-2.3,0.1
			l-2.1,0.1c-0.6,0.1-1.1,0.4-1.7,0.5c-0.1,0-0.1,0.1-0.1,0.1c-0.2,0.2-0.6,0.4-0.6,0.8c-0.1,0.2-0.2,0.4-0.4,0.7
			c-0.1,0.2-0.2,0.4-0.2,0.7c0,0.2-0.1,0.5-0.1,0.8c-0.1,0.3-0.2,0.7-0.1,1c0.1,0.5,0.1,0.9,0.1,1.4c0,0.4,0.1,0.7,0.1,1.1
			c-0.1,0.6-0.1,1.2-0.1,1.9c0,0.5,0.1,1,0,1.5c0,0.2-0.1,0.5,0.1,0.7c0.1,0.1,0.1,0.2,0,0.3c-0.1,0.5,0,1,0,1.5c0,0.3,0.1,0.6,0,0.8
			c-0.1,0.4-0.2,0.7-0.1,1c0.2,0.4,0.2,0.8,0.1,1.2c-0.1,0.1-0.1,0.2-0.1,0.2l0.1,4.3v0.1c0.1,0.4,0,0.7-0.1,1
			c-0.1,0.2-0.1,0.4,0,0.6c0.2,0.5,0.2,1,0.2,1.5c0.1,0.4,0.1,0.8-0.1,1.2c-0.1,0.2-0.1,0.5,0.1,0.7c0.1,0.2,0.1,0.4,0,0.6
			c0,0.2,0,0.4-0.1,0.6c-0.1,0.7,0,1.5-0.1,2.2c-0.1,0.2-0.1,0.6,0.1,0.8c0.2,0.3,0.2,0.7,0.1,1c-0.1,0.2-0.1,0.4,0,0.7
			c0.1,0.6,0.1,1.1-0.2,1.6c-0.1,0.2-0.1,0.3,0,0.4c0.1,0.4,0.2,0.8,0.2,1.2c0.1,0.2,0.1,0.6-0.1,0.8c-0.1,0.1-0.1,0.2-0.1,0.3
			c0,0.6,0.1,1.2,0,1.7c-0.1,0.2,0.1,0.5-0.1,0.7c-0.1,0.2-0.1,0.6,0,0.8c0.2,0.4,0.2,0.9,0.2,1.5c0,0.5-0.1,1,0.2,1.5
			c0,0.1,0.1,0.1,0.1,0.2c0,0.3,0.2,0.6,0.3,0.9c0.2,0.4,0.6,0.7,1.2,0.9c0.6,0.1,1,0.1,1.6,0.1c0.7,0.1,1.4-0.1,2,0.2h0.2
			c0.2-0.1,0.6-0.1,0.9-0.1l0.9-0.1c0.4-0.1,0.9-0.2,1.4-0.2c0.3,0,0.6-0.2,0.9-0.2c0.4,0.1,0.7-0.2,1.1-0.4c0.1,0,0.2-0.1,0.2-0.1
			c0.5-0.2,1-0.4,1.4-0.7c0.3-0.2,0.6-0.6,1-0.7c0.1,0,0.2-0.1,0.2-0.2c0.3-0.6,0.8-1.1,1.3-1.6c0.2-0.2,0.4-0.5,0.4-0.8
			c0.1-0.4,0.2-0.7,0.5-1c0.2-0.3,0.4-0.7,0.4-1.1c-0.1-0.5,0.1-1,0.1-1.5c0-0.1,0.1-0.2,0.1-0.2c0.1-0.4,0.2-0.9,0.2-1.4
			c-0.1-0.3-0.1-0.6,0.1-0.7c0.2-0.4,0.2-0.8,0.1-1.2v-0.8c0.1-0.2,0.1-0.4,0.1-0.6v-1.2c0.1-0.3,0.1-0.7,0.1-1
			c-0.1-0.2-0.1-0.4,0.1-0.6c0.2-0.4,0.2-0.9,0.1-1.4c-0.1-0.4-0.1-0.7-0.1-1C194.7,25.4,194.8,24.6,194.9,23.8z M189.4,21.1
			c0.1,0.1,0.1,0.2,0.1,0.3c-0.3,0.3-0.2,0.7-0.1,1c0.1,0.4,0.1,0.9-0.2,1.2c-0.2,0.4-0.1,0.9,0.1,1.3c0.1,0.2,0.1,0.4,0.1,0.6
			c-0.1,0.6-0.1,1.1,0,1.7c0,0.4,0,0.8-0.1,1.2c-0.1,0.4-0.2,0.8-0.1,1.2c0.1,0.4,0.1,0.8,0,1.2c-0.1,0.3-0.1,0.7-0.1,1
			c-0.1,0.7,0,1.3-0.1,2c-0.1,1-0.2,2-0.6,2.9l-0.2,0.6c-0.1,0.4-0.4,0.7-0.7,1c-0.2,0.3-0.4,0.6-0.8,0.8c-0.4,0.2-0.8,0.5-1.3,0.4
			c-0.4,0-0.7,0.1-1.1,0.1c-0.6-0.2-1-0.4-1.2-1c-0.2-0.7-0.3-1.4-0.4-2c0-0.2,0-0.4-0.1-0.6c-0.1-0.3-0.1-0.7-0.1-0.9c0-1,0.1-2,0-3
			c-0.1-0.6,0-1.2,0-1.7c0-0.9,0-1.7-0.1-2.6c0-1.3,0.1-2.5,0.1-3.8v-0.3c0.1-0.4,0.1-0.7,0.1-1c-0.2-0.6-0.1-1.2-0.1-1.9
			c0-0.5,0-1,0.2-1.5v-0.3c-0.1-0.7,0-1.5,0-2.3c0-0.2,0-0.5-0.1-0.7c-0.1-0.1,0-0.2,0-0.3c0.2-0.6,0.1-1.1,0.1-1.7
			c0-0.4-0.1-0.7,0-1c0.1-0.2,0.1-0.5,0.1-0.7c0-0.3,0-0.6,0.1-0.9c0.1-0.3,0-0.6-0.1-0.9c-0.1-0.4-0.1-0.9,0-1.3
			c0.1-0.4,0.1-0.9,0.1-1.4c0.1-0.6,0.2-1.1,0.8-1.4c0.3-0.1,0.6-0.2,0.9-0.2c0.3,0.1,0.6,0,0.9-0.1c0.3-0.1,0.7,0.1,1,0.2
			c0.3,0.1,0.6,0.2,0.9,0.4c0.4,0.3,0.7,0.7,1,1.1c0.4,0.6,0.5,1.2,0.7,1.9c0.2,0.6,0.2,1.2,0.3,1.9c0.1,0.4-0.1,0.7-0.1,1.1
			c0,0.1,0,0.3,0.1,0.4c0.1,0.4,0.1,0.7,0,1c-0.1,0.1-0.1,0.2-0.1,0.4c0.2,0.3,0.1,0.6,0.1,0.9l0.1,0.6c0.1,0.3,0.2,0.6,0.1,0.9
			c-0.1,0.4-0.1,0.8,0.1,1.2c0.1,0.1,0.1,0.2,0.1,0.3l-0.2,1.7C189.3,20.5,189.3,20.8,189.4,21.1z"/>
	</g>
</svg>
