<?xml version="1.0" encoding="utf-8"?>
<!-- Generator: Adobe Illustrator 21.0.1, SVG Export Plug-In . SVG Version: 6.00 Build 0)  -->
<svg version="1.1" id="Layer_1" xmlns="http://www.w3.org/2000/svg" xmlns:xlink="http://www.w3.org/1999/xlink" x="0px" y="0px"
	 viewBox="0 0 90 14" style="enable-background:new 0 0 90 14;" xml:space="preserve">
<g>
	<path d="M7.2,0.9C8.3,1.1,9,1.2,9.3,1.4c0.2,0.1,0.4,0.2,0.6,0.4c0.3,0.1,0.7,0.4,1.2,0.9c0.3,0.3,0.5,0.5,0.7,0.6
		c0.1,0.2,0.2,0.5,0.3,0.8c0,0.1,0,0.2,0,0.3c0,0.1,0,0.2,0,0.3C12,4.8,12,5,12,5.3h0l0,0c-0.1,0.3-0.2,0.5-0.2,0.7
		c-0.1,0.2-0.3,0.4-0.6,0.7c-0.1,0.1-0.2,0.1-0.3,0.2c0,0.1-0.2,0.2-0.7,0.5C9.7,7.8,9.2,8,8.9,8.1C8.7,8.1,8.6,8.2,8.6,8.2
		c0,0.1,0.1,0.3,0.3,0.4c0.3,0.5,0.6,0.9,0.9,1.2c0,0,0.2,0.2,0.5,0.5c0.2,0.2,0.4,0.4,0.4,0.7c0,0.1,0,0.1,0,0.1c0,0.1,0,0.2,0,0.3
		v0.1c-0.1,0.2-0.2,0.4-0.3,0.4c-0.1,0.1-0.3,0.1-0.6,0.1c-0.1,0-0.3-0.1-0.6-0.1c0,0-0.3-0.1-0.8-0.3c0,0-0.2-0.1-0.4-0.2
		c-0.5-0.2-1-0.4-1.3-0.5c-0.2-0.1-0.3-0.2-0.3-0.2c-0.3-0.1-0.6-0.2-0.8-0.3c-0.1-0.1-0.3-0.2-0.4-0.2H5.2l0,0.2v0.5
		C5.1,11,5.1,11.2,5,11.6c0,0.1-0.1,0.4-0.2,0.8c-0.1,0.2-0.2,0.3-0.3,0.3c0,0-0.2,0.1-0.6,0.4H3.6c-0.1,0-0.2-0.1-0.5-0.3l-0.4-0.2
		c-0.2-0.1-0.4-0.2-0.7-0.5c0,0-0.2-0.1-0.5-0.4C1.2,11.5,1,11.4,1,11.3c-0.1-0.1-0.2-0.3-0.2-0.4c-0.1-0.1-0.1-0.1-0.1-0.2v-0.1
		c0.1-0.4,0.2-0.8,0.2-1c0-0.9-0.1-1.5-0.1-1.7c0-0.4,0.1-1.4,0.4-2.9c0-0.3,0.1-0.5,0.1-0.7V4C1.2,3.8,1,3.7,0.9,3.7v0
		c0.1,0,0.2,0,0.2-0.1h0.1l0-0.1V3.3c0,0,0-0.1,0-0.1c0-0.1-0.1-0.2-0.4-0.4v0c0,0,0-0.1,0.1-0.1v0l0,0l0.2-0.2l0-0.2
		C1.3,2.1,1.4,2,1.7,2l0.2-0.2c0-0.1,0-0.1-0.1-0.2l0,0c0,0,0.1,0.1,0.3,0.1c1.1-0.3,2-0.5,2.6-0.5c0,0,0,0,0.1-0.1
		c0.1,0,0.2,0,0.2,0h0.3C5.9,1,6.4,1,6.7,1C6.9,1,7,0.9,7.2,0.9z"/>
	<path d="M14.3,2.9l0.8,0c0.1,0,0.2,0,0.3,0c0.3,0,0.5,0,0.6,0c0.1,0,0.6,0,1.4,0c0.7,0,1.2,0.1,1.5,0.1c0,0,0.5,0.1,1.4,0.2
		c0.3,0.1,0.5,0.2,0.5,0.2c0.2,0.1,0.4,0.2,0.8,0.3C22,4,22.2,4.3,22.2,4.5v0.1c0,0.2-0.1,0.4-0.2,0.6C22,5.6,22,5.9,22,5.9
		c0.1,0.5,0.1,0.7,0.2,0.7l0.1,0.6v0c0,0.1,0,0.2,0,0.3c0.2,0.5,0.3,0.8,0.3,1c0.2,0.4,0.4,0.9,0.5,1.5v0.4c0,0.2,0,0.4,0,0.7
		c0.1,0.3,0.2,0.5,0.2,0.7v0c-0.1,0.2-0.2,0.4-0.3,0.5l0,0c0,0,0,0,0,0l-0.5,0c-0.1,0-0.2,0-0.3,0v0l-0.3,0.1c0,0,0,0,0,0h0v0.1
		l-0.1,0c0,0,0,0,0,0c0,0,0,0,0,0h0l-0.1,0c0,0-0.1,0-0.1,0c-0.2,0-0.4-0.1-0.4-0.1c-0.1,0-0.1,0-0.2,0c-0.1,0-0.1,0-0.1,0l0,0
		l-0.2,0c-0.2,0-0.4,0-0.4,0c-0.1,0-0.3-0.1-0.5-0.4c-0.2,0-0.5-0.4-0.6-1.1c-0.1-0.5-0.2-0.8-0.3-1c0-0.1-0.2-0.2-0.8-0.3h0
		c-0.8,0-1.2,0.1-1.2,0.1c-0.1,0-0.1,0.2-0.2,0.7c0,0-0.1,0.3-0.1,1c0,0,0,0,0,0c0,0.1,0,0.2,0,0.2c0,0-0.1,0.1-0.1,0.3
		c0,0-0.1,0.1-0.1,0.4c0,0-0.1,0.2-0.2,0.5c0,0.1-0.1,0.1-0.3,0.1l-0.1,0c0,0,0,0,0,0C15,13,14.7,13,14.4,13
		c-0.5-0.2-0.7-0.2-0.8-0.2h-0.1c-0.2-0.1-0.5-0.2-0.9-0.3c-0.1-0.1-0.2-0.2-0.2-0.3v-0.3c0-0.3,0-0.4,0-0.4v-1c0-0.1,0-0.2,0-0.3
		c0,0,0-0.1,0-0.2c0-0.1,0-0.4-0.1-0.8l0-0.2V8.6c0-0.3,0.1-1,0.4-2.1c0.1-0.1,0.2-0.5,0.4-1.2c0-0.2,0.1-0.6,0.3-1l0.1-0.3
		c0,0,0-0.1-0.1-0.1c0.1,0,0.1-0.1,0.2-0.1l0,0c0-0.1,0-0.2,0.1-0.3c0-0.1,0.1-0.2,0.2-0.2v0l-0.1-0.1C14,3,14.2,2.9,14.3,2.9z"/>
	<path d="M24.2,1.5c0,0,0.1,0,0.2,0l0.3,0l0,0l0,0c1.2,0,2,0.1,2.4,0.2c0.5,0.1,1.1,0.3,1.6,0.5c1,0.2,1.8,0.4,2.4,0.7
		c0.2,0.1,0.5,0.3,1,0.6c0.7,0.5,1.1,0.8,1.2,1c0.5,0.4,0.7,0.7,0.7,1c0,0,0.1,0.2,0.1,0.5c0,0.1-0.1,0.4-0.4,0.9
		c-0.2,0.1-0.4,0.4-0.5,0.8c-0.1,0.1-0.3,0.4-0.5,0.8c-0.4,0.4-0.7,0.8-0.9,1.2c-0.3,0.4-0.5,0.6-0.6,0.7c-0.5,0.5-0.9,0.9-1.3,1.4
		c0,0-0.1,0.1-0.3,0.3c-0.4,0.2-0.9,0.5-1.5,1h0c-0.2,0-0.5-0.1-1-0.3l-0.7-0.2c-0.1,0-0.1,0-0.1,0c-0.2-0.1-0.4-0.2-0.7-0.4
		c-0.1,0-0.3-0.1-0.4-0.3c-0.1-0.1-0.3-0.3-0.3-0.8c0-0.1,0-0.2,0-0.5l0-0.4C25,9.5,25,9.1,25,9l0-1c0.1-1.3,0.2-1.9,0.2-2
		c0-0.1,0-0.2,0-0.4c0-0.1,0-0.2,0-0.3C25.1,5,25,4.6,25,4.3c-0.2-0.1-0.5-0.2-0.8-0.2c-0.1,0-0.2,0-0.3,0c-0.7-0.1-1-0.2-1-0.4
		c0,0-0.1,0-0.1-0.1c0,0,0-0.1,0-0.1c0-0.1,0-0.1,0-0.1v0c0-0.1,0.1-0.3,0.2-0.7c0.1-0.4,0.3-0.6,0.5-0.8C23.8,1.7,24,1.6,24.2,1.5z
		"/>
	<path d="M39.8,1.1c0.6,0.1,1,0.1,1,0.1h0.3c1.3,0.1,2.2,0.1,2.7,0.2c1.4,0,2.2,0.1,2.4,0.2L47,1.9l0.1,0c0.5,0.1,1,0.4,1.4,0.8
		c0.1,0,0.1,0.1,0.3,0.2c0.6,0.5,0.9,0.9,1,1.3c0.1,0.1,0.2,0.5,0.4,1.2v0.8L50,7.2c0,0-0.1,0.1-0.1,0.3c0,0-0.1,0.2-0.3,0.4
		c-0.2,0.1-0.3,0.2-0.4,0.4c-0.1,0.2-0.2,0.4-0.4,0.5c-0.1,0.2-0.4,0.3-0.8,0.3c-0.3,0.1-0.6,0.3-0.8,0.5c-0.2,0-0.4,0.1-0.4,0.1
		c-0.1,0-0.1,0-0.2,0l-0.9,0l0,0l-0.1,0c-0.1,0-0.2,0-0.4,0l-0.1,0l-0.1,0l-1.2,0.1l-0.1,0c-0.6,0.1-0.9,0.2-1.1,0.2h-0.2
		c-0.2,0-0.3,0.1-0.3,0.3c0,0.1,0.1,0.4,0.1,0.9c0,0.1,0,0.1,0,0.1c0,0.4,0,0.7,0.1,0.8c0,0.2,0,0.3-0.1,0.4l0,0.1
		c0,0.3-0.2,0.5-0.6,0.5c0,0-0.2,0.1-0.7,0.1c-1.2-0.2-1.7-0.3-1.7-0.4c-0.1-0.1-0.4-0.2-0.9-0.4c-0.1,0-0.3-0.4-0.5-1.1
		c-0.1,0-0.1-0.2-0.1-0.5V9.5c0-0.1,0-0.1,0-0.2c0,0,0-0.1,0-0.1c0,0,0,0,0,0l0-0.2V8.6c0,0,0,0,0,0c0,0,0,0,0,0
		c0-0.1,0-0.3,0.1-0.6c0-0.3,0-0.6,0-1.1v0c0-0.2,0-0.3,0-0.4c0,0,0,0,0,0c0.1-0.7,0.2-1.5,0.3-2.2V3.5c0-0.3,0.1-0.5,0.2-0.6l0,0v0
		c0,0,0.1-0.1,0.1-0.3c0,0,0.2-0.3,0.3-0.8c0.2-0.3,0.5-0.5,1-0.5L39.8,1.1z"/>
	<path d="M54.8,2.5c0.5,0.2,0.8,0.3,0.8,0.3c0.6,0.1,1,0.2,1,0.3c0.3,0.1,0.6,0.2,0.7,0.4c0.1,0,0.2,0.1,0.3,0.2
		c0.1,0.1,0.3,0.3,0.5,0.6c0,0.1-0.1,0.3-0.2,0.6l-0.3,1.2c0,0.3-0.1,0.6-0.3,0.8c-0.2,0.3-0.3,0.8-0.4,1.4v0.2
		C56.9,8.9,57,9,57.2,9c0,0,0.1,0,0.1,0h0.1c0.2,0,0.3,0,0.3-0.1c0.3,0,0.6,0.2,0.8,0.6c0.7,0.5,1.1,0.8,1.3,0.9
		c0.5,0.2,0.8,0.5,0.8,0.7c0,0,0.1,0.1,0.1,0.4c-0.2,0.5-0.4,0.7-0.6,0.7c-0.5,0.2-0.9,0.3-1.1,0.3l0,0c-0.2,0-0.3,0.1-0.3,0.1
		l-0.2,0h-0.4c-0.1,0-0.4,0.1-0.9,0.2c-0.9,0-1.7,0.1-2.4,0.3c-0.2,0-0.4,0-0.5,0c0,0-0.1,0-0.3,0c0,0-0.2,0-0.6,0
		c-0.4,0-0.9-0.1-1.5-0.4c-0.2-0.2-0.4-0.4-0.5-0.6c-0.3-0.2-0.4-0.6-0.4-1c0,0,0,0,0-0.1c0-0.1,0-0.1,0-0.2v-0.3
		c0-0.3,0.1-0.8,0.3-1.5V8.3c0-0.2,0-0.3,0-0.5l0-0.2c0-0.2,0.1-0.8,0.3-1.7c0.1-0.7,0.2-1.1,0.2-1.2c0-0.1,0-0.1,0-0.2
		c0-0.1,0-0.1,0-0.1c0.1,0,0.2-0.3,0.2-0.9c0,0,0-0.1,0-0.2c0-0.1,0-0.1,0-0.1c0.1-0.1,0.3-0.3,0.7-0.5c0.1,0,0.3,0,0.4,0
		c0.1,0,0.2,0,0.3,0C53.6,2.6,54.1,2.6,54.8,2.5z"/>
	<path d="M63,2.9l0.8,0c0.1,0,0.2,0,0.3,0c0.3,0,0.5,0,0.6,0c0.1,0,0.6,0,1.4,0c0.7,0,1.2,0.1,1.5,0.1c0,0,0.5,0.1,1.4,0.2
		c0.3,0.1,0.5,0.2,0.5,0.2c0.2,0.1,0.4,0.2,0.8,0.3c0.4,0.3,0.7,0.6,0.7,0.8v0.1c0,0.2-0.1,0.4-0.2,0.6c-0.1,0.4-0.1,0.7-0.1,0.7
		c0.1,0.5,0.1,0.7,0.2,0.7L71,7.2v0c0,0.1,0,0.2,0,0.3c0.2,0.5,0.3,0.8,0.3,1c0.2,0.4,0.4,0.9,0.5,1.5v0.4c0,0.2,0,0.4,0,0.7
		c0.1,0.3,0.2,0.5,0.2,0.7v0c-0.1,0.2-0.2,0.4-0.3,0.5l0,0c0,0,0,0,0,0l-0.5,0c-0.1,0-0.2,0-0.3,0v0l-0.3,0.1c0,0,0,0,0,0h0v0.1
		l-0.1,0c0,0,0,0,0,0c0,0,0,0,0,0h0l-0.1,0c0,0-0.1,0-0.1,0c-0.2,0-0.4-0.1-0.4-0.1c-0.1,0-0.1,0-0.2,0c-0.1,0-0.1,0-0.1,0l0,0
		l-0.2,0c-0.2,0-0.4,0-0.4,0c-0.1,0-0.3-0.1-0.5-0.4c-0.2,0-0.5-0.4-0.6-1.1c-0.1-0.5-0.2-0.8-0.3-1c0-0.1-0.2-0.2-0.8-0.3h0
		c-0.8,0-1.2,0.1-1.2,0.1c-0.1,0-0.1,0.2-0.2,0.7c0,0-0.1,0.3-0.1,1c0,0,0,0,0,0c0,0.1,0,0.2,0,0.2c0,0-0.1,0.1-0.1,0.3
		c0,0-0.1,0.1-0.1,0.4c0,0-0.1,0.2-0.2,0.5c0,0.1-0.1,0.1-0.3,0.1l-0.1,0c0,0,0,0,0,0c-0.3-0.1-0.7-0.1-1-0.1
		c-0.5-0.2-0.7-0.2-0.8-0.2h-0.1c-0.2-0.1-0.5-0.2-0.9-0.3c-0.1-0.1-0.2-0.2-0.2-0.3v-0.3c0-0.3,0-0.4,0-0.4v-1c0-0.1,0-0.2,0-0.3
		c0,0,0-0.1,0-0.2C61,9.7,61,9.4,61,9l0-0.2V8.6c0-0.3,0.1-1,0.4-2.1c0.1-0.1,0.2-0.5,0.4-1.2c0-0.2,0.1-0.6,0.3-1l0.1-0.3
		c0,0,0-0.1-0.1-0.1c0.1,0,0.1-0.1,0.2-0.1l0,0c0-0.1,0-0.2,0.1-0.3c0-0.1,0.1-0.2,0.2-0.2v0l-0.1-0.1C62.7,3,62.9,2.9,63,2.9z"/>
	<path d="M73.9,3.2L73.9,3.2c0.1,0,0.2,0,0.2,0l0,0c0,0,0,0,0,0l0,0l1.1,0.2c0,0,0.1,0,0.2,0c0.1,0,0.4,0.1,1.1,0.3
		c0.3,0,0.6,0.2,0.9,0.7c0.2,0.3,0.2,0.5,0.2,0.7c0,0.1-0.1,0.3-0.2,0.7c0,0,0,0.1,0,0.1c-0.1,0.2-0.2,0.8-0.3,1.5c0,0,0,0,0,0.1
		l0.1,0.2l0,0.1c0,0,0,0.1,0,0.3c0,0.4,0,0.7,0,0.8c0,0,0,0,0,0l0,0.1c0,0,0,0.1-0.1,0.3c0,0,0.1,0.2,0.1,0.6
		c0.1,0.2,0.1,0.3,0.1,0.4c0,0.2,0,0.4,0,0.6l0,0.1l0,0.3c0.1,0.1,0.1,0.2,0.1,0.3c0,0,0,0.1,0,0.1c0,0,0,0.1,0,0.1
		c-0.1,0.3-0.3,0.6-0.5,0.7c-0.2,0.1-0.2,0.1-0.3,0.1c-0.1,0-0.2-0.1-0.2-0.1c-0.2,0.1-0.4,0.1-0.8,0.1v0c0,0,0,0,0,0
		c-0.2,0-0.3,0-0.4-0.1l-0.2,0h0l-0.2,0c0,0,0,0,0,0h-0.2c0,0-0.1,0-0.1,0l-1-0.2l-0.1,0c-0.1,0-0.3-0.1-0.4-0.4
		c-0.1-0.1-0.2-0.2-0.3-0.4c-0.1-0.1-0.2-0.2-0.2-0.4v0c0,0,0-0.1,0-0.1l0-0.1c0-0.5,0-0.8,0-0.9l-0.1-0.9l0-0.1
		c0-0.5,0.1-0.8,0.1-0.9l0-0.3c0.1-0.2,0.1-0.3,0.1-0.3c0,0,0,0,0,0c0.1-0.2,0.1-0.4,0.2-0.7c0-0.1,0-0.2,0-0.4c0-0.1,0-0.1,0-0.1
		c0,0,0,0,0,0c0.1-0.8,0.1-1.5,0.2-2l0-0.1l0-0.1l0-0.2C72.9,4,73,3.9,73,3.6c0.2-0.2,0.3-0.3,0.5-0.4C73.6,3.2,73.7,3.2,73.9,3.2z"
		/>
	<path d="M79.2,1.5c0,0,0.1,0,0.2,0l0.3,0l0,0l0,0c1.2,0,2,0.1,2.4,0.2c0.5,0.1,1.1,0.3,1.6,0.5c1,0.2,1.8,0.4,2.4,0.7
		c0.2,0.1,0.5,0.3,1,0.6c0.7,0.5,1.1,0.8,1.2,1c0.5,0.4,0.7,0.7,0.7,1c0,0,0.1,0.2,0.1,0.5c0,0.1-0.1,0.4-0.4,0.9
		c-0.2,0.1-0.4,0.4-0.5,0.8c-0.1,0.1-0.3,0.4-0.5,0.8c-0.4,0.4-0.7,0.8-0.9,1.2c-0.3,0.4-0.5,0.6-0.6,0.7c-0.5,0.5-0.9,0.9-1.3,1.4
		c0,0-0.1,0.1-0.3,0.3c-0.4,0.2-0.9,0.5-1.5,1h0c-0.2,0-0.5-0.1-1-0.3l-0.7-0.2c-0.1,0-0.1,0-0.1,0c-0.2-0.1-0.4-0.2-0.7-0.4
		c-0.1,0-0.3-0.1-0.4-0.3c-0.1-0.1-0.3-0.3-0.3-0.8c0-0.1,0-0.2,0-0.5l0-0.4C80,9.5,80,9.1,80,9l0-1c0.1-1.3,0.2-1.9,0.2-2
		c0-0.1,0-0.2,0-0.4c0-0.1,0-0.2,0-0.3C80.1,5,80,4.6,80,4.3c-0.2-0.1-0.5-0.2-0.8-0.2c-0.1,0-0.2,0-0.3,0c-0.7-0.1-1-0.2-1-0.4
		c0,0-0.1,0-0.1-0.1c0,0,0-0.1,0-0.1c0-0.1,0-0.1,0-0.1v0c0-0.1,0.1-0.3,0.2-0.7c0.1-0.4,0.3-0.6,0.5-0.8C78.8,1.7,79,1.6,79.2,1.5z
		"/>
</g>
</svg>
