<svg
	version="1.1"
	xmlns="http://www.w3.org/2000/svg"
	x="0px"
	y="0px"
	viewBox="0 0 210 52">
	<style type="text/css">
		.st0{fill:#FFFFFF;}
		.st1{fill:none;}
		.st2{fill:none;stroke:#FFFFFF;stroke-width:0;stroke-linecap:round;stroke-linejoin:round;}
	</style>
	<g>
		<path d="M120.2,0.1L108,0c-1,0.1-1.8,0.1-2.4,0.1v12.6c0,2,0,5.2,0.1,9.4c0,1.2,0,2.3,0,3.3c-1.9,1.9-3.6,4-5.4,5.9
			c-1.6,1.8-3.2,3.7-5.1,5.1c-0.3,0.2-0.6,0.6-1,0.4c-0.5-0.2-0.3-0.7-0.3-1c0-3.9,0.3-7.7,0.6-11.6c0.5-6,1.1-11.9,1.6-17.9
			c0.2-1.9-0.6-3.5-2.1-4.7c-1.3-1-2.2-0.8-3,0.6c-0.3,0.6-0.6,1.2-0.8,1.9c-1.8,5.2-2.9,10.5-3.8,15.9c-0.4,2.6-1.2,4.9-3.1,6.7
			c-0.6,0.5-1,1.2-1.5,1.8c-1.7,1.9-3.3,4-5.4,5.7c-0.3,0.3-0.7,0.7-1.2,0.5c-0.4-0.2-0.2-0.8-0.2-1.2c0.5-4.2,1.5-8.1,3.1-12
			c0.3-0.8,0.8-0.9,1.5-0.6c1,0.6,2.1,1.1,3.1,1.7c0.6,0.3,1.2,0.3,1.7-0.2c0.5-0.6,0.2-1.1-0.2-1.5c-1.6-1.8-3.5-3.1-5.7-3.8
			c-0.9-0.3-1.7-0.1-2.4,0.5c-1.3,1.2-2.3,2.6-3.3,4.1c-1.2,1.8-1.9,3.9-3.2,5.6c-2.4,3.3-4.8,6.6-7.1,10c-1.2,1.7-2.3,3.4-3.6,5.3
			c0.1-1.8,0.3-3.2,0.7-4.7c0.9-3.5,1.9-7.1,2.9-10.6c0.7-2.3,0-4.2-1.8-5.8c-1.6-1.4-2.4-1.5-4.2-0.1c-4.1,3.2-8,6.7-11.8,10.3
			c-1.1,1-2.1,1.9-3.2,2.9c-0.1-0.1-0.1-0.1-0.2-0.2c1.5-4.5,3.3-8.8,5.9-12.8c1.1-1.7,1.4-1.7,3.2-0.8c0.2,0.1,0.4,0.2,0.6,0.3
			c0.9,0.5,1.6,0.1,2.2-0.6c0.6-0.7,0.6-1.4,0.1-2.1c-1-1.4-2.4-2.2-4-2.6c-1.3-0.4-2.4-0.1-3.4,0.7c-1.6,1.3-2.9,2.8-4.2,4.4
			c-3.8,4.7-7.2,9.6-9.7,15c-0.3,0.7-0.5,0.6-0.9,0.1c-2.3-3.1-4.7-6.3-7-9.3c-0.6-0.7-0.4-1.1,0.2-1.6c3.3-2.9,6.5-6,9.6-9.2
			c1-1.1,2-2.2,2.9-3.4c0.5-0.7,0.7-1.4,0.5-2.3c-0.7-3.5-2.7-6.1-5.4-8.3c-2.3-1.9-4.7-2.3-7.6-1.4c-6.6,2.2-12.9,5-18.8,8.7
			c-1.5,0.9-2.9,1.9-4.1,3.2c-1,1.1-1.1,2-0.4,3.3c0.5,1,1.4,1.7,2.4,2.4c0.9,0.6,1.6,0.6,2.6,0.1c3.7-2.1,7.3-4.2,11.1-6
			c3.2-1.5,6.4-3.1,9.9-3.7c1.4-0.3,1.8-0.1,2.5,0.9c0.7,1,0.4,1.7-0.4,2.5c-0.3,0.3-0.5,0.6-0.8,1c-2.5,2.9-5.2,5.6-7.9,8.4
			c-1,1.1-2.1,2.1-3.3,3.2c0.3-2.1,0.5-4,0.8-5.9c0.3-1.3-0.4-2-1.3-2.6c-1.5-1.1-2.1-1-3,0.7c-1.3,2.3-2.3,4.7-3.2,7.1
			c-1.6,4.4-3.2,8.8-4,13.5c-0.2,1.3,0,2.5,0.9,3.5c1.4,1.5,2.9,2.8,4.6,4c2,1.3,2.5,1.1,3-1.2c0.7-3.3,1-6.6,1.3-9.9
			c0.1-0.9,0.2-1.8,0.3-2.7c0.1-0.9,1-1.2,1.7-1.4c0.5-0.1,0.6,0.7,0.8,1.1c1,2,2,4.1,3,6.1c2.1,3.9,4.2,7.8,7,11.3
			c0.8,1.1,1.8,2,2.9,2.8c1.1,0.7,2.2,0.9,3.3,0c0.9-0.7,1.8-1.2,2.6-2c2-2.1,4.2-3.9,6.8-5.3c2.3-1.2,4.4-2.7,6.7-4.2
			c0.2,1.3,0.3,2.5,0.4,3.6c0.2,1.7,0.4,3.5,1.1,5.1c1,2.4,3.6,3,5.6,1.3c0.6-0.5,1.1-1.1,1.6-1.7c2.5-2.9,4.6-6.1,6.7-9.3
			c0.2-0.3,0.3-0.5,0.7-1c-0.1,2.7,1.3,4.4,2.8,6.1c2.4,2.7,3.9,2.9,7,0.9c2.5-1.6,4.8-3.5,7.1-5.5c0.9-0.7,0.8-0.7,1.2,0.4
			c0.7,2.3,1.5,4.6,3,6.5c1.6,2,3.3,2.2,5.4,0.7c1.2-0.9,2.3-1.9,3.4-3c3.2-3.4,6.1-7.1,8.7-11v11.5c0.1,0.2,0.1,0.5,0.1,1
			c0,0.5,0,0.9,0.2,1c0,0,1.3,0,4.1,0.1c1.7,0,3,0,4-0.1c0.3-0.5,0.4-1,0.1-1.7l0.2-0.1c-0.1-0.7-0.2-1.2-0.2-1.6l0.2-0.1
			c0-6.2,0.1-11,0.1-14.1c0-0.1,0.1-0.2,0.1-0.2c0-0.5,0.1-0.9,0.1-1.2c1.5,0,3-0.1,4.4-0.1c1.7,0,3.1-0.2,4.1-0.5
			c3.1-0.9,4.8-3.5,5.1-7.9c0-2.4,0-4.8,0-7.3c-0.1-2.8-0.5-5-1.4-6.7C125.8,1.9,123.6,0.5,120.2,0.1z M118.8,16.6
			c-0.1,0.4-0.3,0.8-0.4,1.4c-0.3,0.3-0.8,0.5-1.4,0.6c-0.7,0.1-1.3,0.1-1.9,0.2l-0.2-0.2V8.7c0.2-0.2,0.7-0.3,1.7-0.3
			c0.2,0.1,0.5,0.1,0.9,0.2c0.4,0,0.6,0.1,0.8,0.2c0.4,0.3,0.6,0.9,0.6,1.9V16.6z"/>
		<path d="M139,38.5c-0.1-0.2-0.2-0.7-0.2-1.7c0-0.1,0.1-0.2,0.1-0.5c0-0.2,0.1-0.4,0.1-0.5c0-6.6,0-11.6-0.2-14.9
			c0-1.5-0.1-2.4-0.3-2.7c0.2-0.3,0.3-1.4,0.3-3.3v-13c0-0.3-0.1-0.7-0.2-1.2c-0.2-0.5-0.3-0.7-0.5-0.7c-0.6,0-1.4,0-2.4,0.1
			c-1,0.1-1.8,0.1-2.4,0.1c-0.7,0-1.1,0.1-1.2,0.2H131c-0.2,0.3-0.4,0.6-0.4,0.9v9.9c0,0.5,0,2.1-0.1,4.6c-0.1,2-0.1,3.6,0.1,4.8
			v14.1c0,0.5,0,1.5-0.1,3c0,1.3-0.1,2.3-0.1,3c0,1.1,0.1,2.1,0.2,3c0,0.2-0.1,0.4-0.1,0.7c0,0.3,0,0.6,0.1,0.9
			c0,0.1,0.1,0.1,0.4,0.1c1.7,0,4.8,0.1,9.4,0.2c4,0.1,7.2,0.2,9.4,0.1l0.2-0.3c0.1-2.2,0.1-3.9,0.1-5.1c0-0.7-0.1-1.4-0.4-1.9
			C145.8,38.8,142.1,38.8,139,38.5z M131.2,1.5h0.1v0.3h-0.1V1.5z M131.5,16.1c-0.1,0.1-0.2,0.1-0.3,0.1c0-0.1,0-0.2,0-0.2h0.4
			C131.6,16,131.6,16,131.5,16.1z M131.8,20.1l-0.2-0.1h0.2V20.1z M134.3,2.3l-0.3-0.2l0.3-0.2V2.3z M136.5,2.8l0.2-0.1l0.3,0.1
			H136.5z M138.2,3H138C138,3,138.1,3,138.2,3L138.2,3z"/>
		<path d="M170.3,8.8c-0.5-3.5-0.8-5.8-0.9-6.9c0-0.3-0.1-0.6-0.2-0.9c-0.1-0.3-0.3-0.5-0.6-0.5c-1.1-0.2-2.4-0.2-3.7-0.2
			c-0.9,0-2.1,0-3.7,0c-1.8,0-3.1,0.1-3.8,0.1c-0.4,0.2-0.7,0.4-0.9,0.5c-0.3,1.9-0.5,3.3-0.7,4.3c-0.4,3.6-1.1,9.7-2.2,18.2
			c-1,7.8-1.8,13.8-2.2,18.2c-0.1,0.7-0.2,1.5-0.3,2.2c-0.1,0.9,0,1.5,0.1,2c0.1,0.1,0.4,0.1,0.8,0c1.9,0.2,2.7,0.3,2.4,0.3
			c0.2,0,0.9,0,2.3,0c1,0,1.6-0.2,2-0.7c0.6-3.7,1-6.5,1.2-8.4l0.1-0.2h4.9l0.4,0.3c0.5,2.6,0.9,4.5,1.1,5.9c0.1,0.2,0.2,0.7,0.2,1.4
			c0.1,0.7,0.2,1.2,0.5,1.5c2,0.3,4.2,0.3,6.5,0.1c0.3,0.2,0.6,0.2,0.8-0.1c0-1.6-0.2-4.3-0.7-8.1C172.3,25.2,171.1,15.5,170.3,8.8z
			 M163.5,29c-0.5,0-0.8,0-0.9,0.1l-1.5-0.1c-0.1-0.1-0.1-0.5-0.1-1.2l0.4-3c0.4-2.8,0.7-4.6,1-5.4c-0.1-0.2,0-0.5,0.1-0.9
			c0.1,0.6,0.2,1.1,0.2,1.4c0,0.1,0.1,0.3,0.2,0.5c0.1,0.3,0.2,0.5,0.2,0.6c0.1,0.4,0.2,1.2,0.2,2.2c0,0.9,0.1,1.6,0.3,2.2
			c0.2,1.4,0.4,2.5,0.4,3.2C164,28.8,163.8,29,163.5,29z M165.4,29.1h-0.1C165.3,29.1,165.3,29.1,165.4,29.1c0-0.1,0.1-0.1,0.2-0.1
			C165.6,29.1,165.5,29.1,165.4,29.1z M168.2,33.5H168c0,0,0.1-0.1,0.1-0.2c0-0.1,0.1-0.1,0.1-0.1C168.3,33.2,168.3,33.3,168.2,33.5
			C168.3,33.6,168.3,33.6,168.2,33.5z"/>
		<path d="M185,35.4l-0.1-0.2c0.1-0.4,0.1-0.9,0.1-1.4c0-0.5,0-1.1-0.1-2c-0.1-0.9-0.1-1.5-0.1-2c0-0.5,0-1,0.1-1.5
			c0-0.1-0.1-0.2-0.1-0.2c0,0,0-0.1,0.1-0.3c0-0.2,0-1.1-0.1-2.9c0-1.1-0.1-2-0.2-2.7c0.2-2.9,0.3-5.4,0.2-7.5c0-0.5,0-0.8,0-0.9
			c-0.1-1-0.1-2.7-0.1-5c0-2.1-0.1-3.7-0.2-4.9c0.3-0.5,0.3-1,0.1-1.6c0.2-0.6,0.1-1.3-0.3-2.2c-2-0.2-4.6-0.2-7.9,0
			c-0.2,0.1-0.4,0.7-0.3,1.7c0.2,8.5,0.3,15.6,0.3,21.3v15.1l0.2,3.6c0,0.1,0,0.7-0.1,1.9c0,0.8,0,1.4,0.2,1.9c0,0.2,0.1,0.3,0.3,0.3
			c0.2,0,0.3,0.1,0.4,0.2h7.1c0.3,0,0.4-0.3,0.4-0.8c0-0.2,0-0.3,0-0.4c0-0.1,0-0.2,0-0.3c0-0.1,0-0.2,0-0.2
			C185,40.5,185,37.5,185,35.4z M181.4,29.8c0.3,0,0.4,0.3,0.2,0.9c-0.2-0.1-0.2-0.3-0.2-0.6V29.8z M180.8,24.4l-0.4-0.2h0.5
			L180.8,24.4z M181.4,44.9c-0.1-0.1-0.1-0.2,0.1-0.3h0.4L181.4,44.9z M181.6,41.4l-0.6-0.5h0.6l0.4,0.3L181.6,41.4z M182.6,44.7
			l-0.3-0.1l0.3-0.2V44.7z M182.7,44.4l0.1-0.1h0.1C183,44.4,182.9,44.4,182.7,44.4z M182.9,37.3v-0.4l0.1,0.2L182.9,37.3z M183.1,28
			c0.2,0.3,0.3,0.5,0.3,0.7H183L183.1,28z M184.1,44.6l-0.7,0.1l0.3-0.3h1C184.3,44.3,184.1,44.4,184.1,44.6z"/>
		<path d="M209.5,25.5c-0.2-0.3-0.2-0.5-0.2-0.6c0.3-6.7,0.4-11,0.3-13c-0.2-0.5-0.2-0.9-0.1-1.2c-0.5-3.6-1-5.9-1.7-7.1
			c-1-1.7-2.3-2.7-3.9-3.1l-1-0.2c-1.9-0.1-7-0.2-15.2-0.2c-0.1,0.1-0.2,0.3-0.3,0.4V12l0.1,19.4c0,8.4,0.1,13,0.2,14.1l0.2,0.3
			c1.6,0.1,2.8,0.2,3.7,0.2c1.9,0.1,3.4,0.2,4.4,0.2c1.4,0,2.8,0,4.2,0c1.7,0,3-0.2,4-0.7c2.6-1,4.2-3.1,4.8-6.4
			c0.2-1.2,0.3-4.1,0.3-8.9h0.2c0-0.2,0-0.6-0.1-1.1c-0.1-0.5-0.1-0.8-0.1-1.1C209.4,26.9,209.5,26.1,209.5,25.5z M191,27.8v-0.2
			c-0.1,0-0.2-0.1-0.2-0.4c0.2-0.3,0.2-0.5,0.2-0.6l0.1-0.1c0-0.1,0.1-0.2,0.2-0.3c0.1-0.1,0.2-0.1,0.2-0.2c0.1,0,0.3,0.1,0.5,0.1
			c0.2,0,0.3,0.2,0.3,0.4c0,0.1,0,0.2-0.1,0.5c-0.1,0.2-0.1,0.4-0.1,0.6c-0.3,0.2-0.5,0.2-0.7,0.2C191.2,27.9,191.1,27.9,191,27.8z
			 M192.3,28.1l-0.3,0.3v-0.1L192.3,28.1z M192.3,29.2L192,29c-0.1,0.1-0.1,0.2-0.1,0.3c-0.2-0.2-0.3-0.4-0.4-0.5
			c0.1,0,0.2-0.1,0.2-0.3c0.4,0.2,0.6,0.3,0.7,0.3L192.3,29.2z M194,33.1c0,0-0.1,0-0.2,0.1c-0.5-0.1-0.7-0.3-0.6-0.4
			c0.1,0,0.2-0.1,0.3-0.3c0.1-0.2,0.2-0.3,0.3-0.3h0.1l0.2,0.4C194.5,32.7,194.4,32.9,194,33.1z M200.3,23.2v0.5c0,0.6,0,2.7,0,6.4
			c0,2.6-0.1,4.7-0.2,6.3c0,0.5-0.2,0.9-0.6,1.1l-0.1,0.1c-0.5,0.3-0.8,0.4-1,0.4c0,0-0.2,0-0.7,0.1c-0.3,0-0.6,0-0.8-0.1
			c-0.5,0-0.7-0.1-0.7-0.2V14.3c0-0.7,0-1.7,0.1-3.1c0-1.3,0.1-2.3,0.1-2.9c0.5-0.2,0.9-0.4,1.2-0.3c0.2,0,0.4,0,0.7,0.1
			c0.3,0.1,0.5,0.1,0.7,0.1c0.7,0.2,1.1,0.4,1.2,0.8c0.2,1,0.2,1.7,0.2,2.2V23.2z"/>
		<polygon points="194,32.8 194,32.7 193.8,32.7 	"/>
		<polygon points="191.9,27.7 191.9,27.5 191.7,27.5 	"/>
		<rect x="191.5" y="26.3" width="0.1" height="0.1"/>
	</g>
</svg>
