<svg xmlns="http://www.w3.org/2000/svg" xmlns:xlink="http://www.w3.org/1999/xlink" viewBox="0 0 400 400"><defs><style>.a{fill:none;}.b{clip-path:url(#a);}.c{clip-path:url(#b);}.d{fill:#b3b3b3;opacity:0.15;}.e{clip-path:url(#c);}.f{clip-path:url(#d);}.g{clip-path:url(#e);}.h{clip-path:url(#f);}</style><clipPath id="a"><rect class="a" width="400" height="400"/></clipPath><clipPath id="b"><rect class="a" x="59" y="59" width="283" height="282.84" transform="translate(-83 200) rotate(-45)"/></clipPath><clipPath id="c"><rect class="a" x="-141" y="259" width="283" height="282.84" transform="translate(-283 117) rotate(-45)"/></clipPath><clipPath id="d"><rect class="a" x="259" y="-141" width="283" height="282.84" transform="translate(117 283) rotate(-45)"/></clipPath><clipPath id="e"><rect class="a" x="259" y="259" width="283" height="282.84" transform="translate(-166 400) rotate(-45)"/></clipPath><clipPath id="f"><rect class="a" x="-141" y="-141" width="283" height="282.84" transform="translate(0 0) rotate(-45)"/></clipPath></defs><title>plaid</title><g class="b"><g class="c"><rect class="d" x="96" y="110" width="4" height="103.71" rx="2" ry="2" transform="translate(-86 117) rotate(-45)"/><rect class="d" x="100" y="104" width="4" height="94.28" rx="2" ry="2" transform="translate(-77 116) rotate(-45)"/><rect class="d" x="104" y="99" width="4" height="84.85" rx="2" ry="2" transform="translate(-69 116) rotate(-45)"/><rect class="d" x="118" y="89" width="4" height="103.71" rx="2" ry="2" transform="translate(-65 126) rotate(-45)"/><rect class="d" x="121" y="83" width="4" height="94.28" rx="2" ry="2" transform="translate(-56 125) rotate(-45)"/><rect class="d" x="125" y="77" width="4" height="84.85" rx="2" ry="2" transform="translate(-48 125) rotate(-45)"/><rect class="d" x="136" y="69" width="4" height="94.28" rx="2" ry="2" transform="translate(-42 131) rotate(-45)"/><rect class="d" x="146" y="60" width="4" height="103.71" rx="2" ry="2" transform="translate(-36 137) rotate(-45)"/><rect class="d" x="146" y="56" width="4" height="84.85" rx="2" ry="2" transform="translate(-26 134) rotate(-45)"/><rect class="d" x="157" y="48" width="4" height="94.28" rx="2" ry="2" transform="translate(-20 140) rotate(-45)"/><rect class="d" x="149" y="285" width="283" height="9.43" transform="translate(-120 290) rotate(-45)"/><rect class="d" x="243" y="266" width="4" height="84.85" rx="2" ry="2" transform="translate(-147 263) rotate(-45)"/><rect class="d" x="247" y="251" width="4" height="94.28" rx="2" ry="2" transform="translate(-138 263) rotate(-45)"/><rect class="d" x="250" y="236" width="4" height="103.71" rx="2" ry="2" transform="translate(-130 263) rotate(-45)"/><rect class="d" x="264" y="245" width="4" height="84.85" rx="2" ry="2" transform="translate(-125 272) rotate(-45)"/><rect class="d" x="268" y="230" width="4" height="94.28" rx="2" ry="2" transform="translate(-117 272) rotate(-45)"/><rect class="d" x="272" y="215" width="4" height="103.71" rx="2" ry="2" transform="translate(-108 272) rotate(-45)"/><rect class="d" x="282" y="216" width="4" height="94.28" rx="2" ry="2" transform="translate(-103 278) rotate(-45)"/><rect class="d" x="293" y="217" width="4" height="84.85" rx="2" ry="2" transform="translate(-97 284) rotate(-45)"/><rect class="d" x="293" y="193" width="4" height="103.71" rx="2" ry="2" transform="translate(-87 280) rotate(-45)"/><rect class="d" x="304" y="194" width="4" height="94.28" rx="2" ry="2" transform="translate(-81 287) rotate(-45)"/><rect class="d" x="189" y="95" width="104" height="13.2" rx="7" ry="7" transform="translate(-1 200) rotate(-45)"/><rect class="d" x="228" y="99" width="75" height="13.2" rx="7" ry="7" transform="translate(3 219) rotate(-45)"/><rect class="d" x="234" y="117" width="85" height="13.2" rx="7" ry="7" transform="translate(-6 232) rotate(-45)"/><rect class="d" x="232" y="138" width="104" height="13.2" rx="7" ry="7" transform="translate(-19 243) rotate(-45)"/><rect class="d" x="255" y="149" width="94" height="13.2" rx="7" ry="7" transform="translate(-22 259) rotate(-45)"/><rect class="d" x="-31" y="105" width="283" height="9.43" transform="translate(-46 110) rotate(-45)"/><rect class="d" x="149" y="105" width="283" height="9.43" transform="translate(163 -173) rotate(45)"/><rect class="d" x="-31" y="285" width="283" height="9.43" transform="translate(237 7) rotate(45)"/><rect class="d" x="54" y="245" width="75" height="13.2" rx="7" ry="7" transform="translate(-151 138) rotate(-45)"/><rect class="d" x="64" y="249" width="104" height="13.2" rx="7" ry="7" transform="translate(-147 157) rotate(-45)"/><rect class="d" x="79" y="267" width="94" height="13.2" rx="7" ry="7" transform="translate(-156 170) rotate(-45)"/><rect class="d" x="97" y="288" width="75" height="13.2" rx="7" ry="7" transform="translate(-169 181) rotate(-45)"/><rect class="d" x="109" y="299" width="85" height="13.2" rx="7" ry="7" transform="translate(-172 197) rotate(-45)"/></g><g class="e"><rect class="d" x="-51" y="485" width="283" height="9.43" transform="translate(-320 207) rotate(-45)"/><rect class="d" x="-11" y="295" width="104" height="13.2" rx="7" ry="7" transform="translate(-201 117) rotate(-45)"/><rect class="d" x="28" y="299" width="75" height="13.2" rx="7" ry="7" transform="translate(-197 136) rotate(-45)"/><rect class="d" x="34" y="317" width="85" height="13.2" rx="7" ry="7" transform="translate(-206 149) rotate(-45)"/><rect class="d" x="32" y="338" width="104" height="13.2" rx="7" ry="7" transform="translate(-219 160) rotate(-45)"/><rect class="d" x="55" y="349" width="94" height="13.2" rx="7" ry="7" transform="translate(-222 176) rotate(-45)"/><rect class="d" x="-231" y="305" width="283" height="9.43" transform="translate(-246 27) rotate(-45)"/><rect class="d" x="-51" y="305" width="283" height="9.43" transform="translate(246 27) rotate(45)"/><rect class="d" x="-231" y="485" width="283" height="9.43" transform="translate(320 207) rotate(45)"/></g><g class="f"><rect class="d" x="349" y="85" width="283" height="9.43" transform="translate(80 373) rotate(-45)"/><rect class="d" x="169" y="-95" width="283" height="9.43" transform="translate(154 193) rotate(-45)"/><rect class="d" x="349" y="-95" width="283" height="9.43" transform="translate(80 -373) rotate(45)"/><rect class="d" x="169" y="85" width="283" height="9.43" transform="translate(154 -193) rotate(45)"/><rect class="d" x="254" y="45" width="75" height="13.2" rx="7" ry="7" transform="translate(49 221) rotate(-45)"/><rect class="d" x="264" y="49" width="104" height="13.2" rx="7" ry="7" transform="translate(53 240) rotate(-45)"/><rect class="d" x="279" y="67" width="94" height="13.2" rx="7" ry="7" transform="translate(44 252) rotate(-45)"/><rect class="d" x="297" y="88" width="75" height="13.2" rx="7" ry="7" transform="translate(31 264) rotate(-45)"/><rect class="d" x="309" y="99" width="85" height="13.2" rx="7" ry="7" transform="translate(28 280) rotate(-45)"/></g><g class="g"><rect class="d" x="296" y="310" width="4" height="103.71" rx="2" ry="2" transform="translate(-169 317) rotate(-45)"/><rect class="d" x="300" y="304" width="4" height="94.28" rx="2" ry="2" transform="translate(-160 316) rotate(-45)"/><rect class="d" x="304" y="299" width="4" height="84.85" rx="2" ry="2" transform="translate(-152 316) rotate(-45)"/><rect class="d" x="318" y="289" width="4" height="103.71" rx="2" ry="2" transform="translate(-147 326) rotate(-45)"/><rect class="d" x="321" y="283" width="4" height="94.28" rx="2" ry="2" transform="translate(-139 325) rotate(-45)"/><rect class="d" x="325" y="277" width="4" height="84.85" rx="2" ry="2" transform="translate(-130 325) rotate(-45)"/><rect class="d" x="336" y="269" width="4" height="94.28" rx="2" ry="2" transform="translate(-125 331) rotate(-45)"/><rect class="d" x="346" y="260" width="4" height="103.71" rx="2" ry="2" transform="translate(-119 337) rotate(-45)"/><rect class="d" x="346" y="256" width="4" height="84.85" rx="2" ry="2" transform="translate(-109 334) rotate(-45)"/><rect class="d" x="357" y="248" width="4" height="94.28" rx="2" ry="2" transform="translate(-103 340) rotate(-45)"/><rect class="d" x="349" y="485" width="283" height="9.43" transform="translate(-203 490) rotate(-45)"/><rect class="d" x="169" y="305" width="283" height="9.43" transform="translate(-128 310) rotate(-45)"/><rect class="d" x="349" y="305" width="283" height="9.43" transform="translate(363 -256) rotate(45)"/><rect class="d" x="169" y="485" width="283" height="9.43" transform="translate(437 -76) rotate(45)"/></g><g class="h"><rect class="d" x="-51" y="85" width="283" height="9.43" transform="translate(-37 90) rotate(-45)"/><rect class="d" x="43" y="66" width="4" height="84.85" rx="2" ry="2" transform="translate(-64 63) rotate(-45)"/><rect class="d" x="47" y="51" width="4" height="94.28" rx="2" ry="2" transform="translate(-55 63) rotate(-45)"/><rect class="d" x="50" y="36" width="4" height="103.71" rx="2" ry="2" transform="translate(-47 63) rotate(-45)"/><rect class="d" x="64" y="45" width="4" height="84.85" rx="2" ry="2" transform="translate(-42 72) rotate(-45)"/><rect class="d" x="68" y="30" width="4" height="94.28" rx="2" ry="2" transform="translate(-34 72) rotate(-45)"/><rect class="d" x="72" y="15" width="4" height="103.71" rx="2" ry="2" transform="translate(-25 72) rotate(-45)"/><rect class="d" x="82" y="16" width="4" height="94.28" rx="2" ry="2" transform="translate(-20 78) rotate(-45)"/><rect class="d" x="93" y="17" width="4" height="84.85" rx="2" ry="2" transform="translate(-14 84) rotate(-45)"/><rect class="d" x="93" y="-7" width="4" height="103.71" rx="2" ry="2" transform="translate(-4 80) rotate(-45)"/><rect class="d" x="104" y="-6" width="4" height="94.28" rx="2" ry="2" transform="translate(2 87) rotate(-45)"/><rect class="d" x="-231" y="-95" width="283" height="9.43" transform="translate(37 -90) rotate(-45)"/><rect class="d" x="-51" y="-95" width="283" height="9.43" transform="translate(-37 -90) rotate(45)"/><rect class="d" x="-231" y="85" width="283" height="9.43" transform="translate(37 90) rotate(45)"/></g></g></svg>
